<svg version="1.1" xmlns="http://www.w3.org/2000/svg" viewBox="0 0 1420.8991287011654 510" width="1420.8991287011654" height="510" filter="invert(93%) hue-rotate(180deg)">
  <!-- svg-source:excalidraw -->
  
  <defs>
    <style class="style-fonts">
      @font-face {
        font-family: "Virgil";
        src: url("./images/Virgil.woff2");
      }
      @font-face {
        font-family: "Cascadia";
        src: url("https://excalidraw.com/Cascadia.woff2");
      }
    </style>
    
  </defs>
  <g stroke-linecap="round" transform="translate(210 270) rotate(0 200 40)"><path d="M5.32 4.63 C5.32 4.63, 5.32 4.63, 5.32 4.63 M5.32 4.63 C5.32 4.63, 5.32 4.63, 5.32 4.63 M3.09 13.29 C7.25 11.01, 8.92 7.41, 12.28 2.72 M3.09 13.29 C6.12 10.29, 8.82 6.45, 12.28 2.72 M1.52 21.2 C6.41 13.13, 12.05 8.09, 18.58 1.57 M1.52 21.2 C5.76 15.87, 11.97 9.69, 18.58 1.57 M1.26 27.59 C10.02 20.16, 14.55 11.19, 22.91 2.69 M1.26 27.59 C8.23 20.78, 13.04 14.52, 22.91 2.69 M1.65 33.24 C10.42 19.73, 22.71 10.19, 28.55 2.29 M1.65 33.24 C7.9 25.01, 14.82 17.74, 28.55 2.29 M1.39 39.64 C14.62 26.99, 22.61 11.5, 33.54 2.65 M1.39 39.64 C9.23 31, 15.09 23.02, 33.54 2.65 M1.13 46.03 C11.6 32.07, 23.76 19.33, 39.18 2.26 M1.13 46.03 C13.51 31.94, 25.62 18.93, 39.18 2.26 M1.53 51.68 C17.19 33.47, 31.51 17.86, 44.17 2.62 M1.53 51.68 C14.1 38.24, 26 22.81, 44.17 2.62 M1.26 58.07 C20.07 37.56, 38.56 14.59, 49.16 2.98 M1.26 58.07 C19.79 36.63, 38.15 14, 49.16 2.98 M2.97 62.21 C22.9 37.68, 41.65 14.99, 54.8 2.59 M2.97 62.21 C15.28 46.81, 29.51 30.99, 54.8 2.59 M2.05 69.36 C17.65 47.8, 36.96 27.82, 59.79 2.95 M2.05 69.36 C21.62 46.8, 38.38 25.66, 59.79 2.95 M4.42 72.74 C26.32 46.26, 49.75 18.24, 65.43 2.55 M4.42 72.74 C19.45 55.04, 35.77 36.6, 65.43 2.55 M6.78 76.12 C19.95 58.2, 34.68 43.73, 70.42 2.91 M6.78 76.12 C22.28 57.4, 38.54 40.13, 70.42 2.91 M9.8 78.74 C33.17 53.14, 57.33 23.88, 76.06 2.52 M9.8 78.74 C23.75 62.11, 40.35 43.87, 76.06 2.52 M14.13 79.86 C32.04 55.04, 52.09 33.8, 81.05 2.88 M14.13 79.86 C35.66 56.84, 54.31 33.47, 81.05 2.88 M17.8 81.73 C34.3 63.71, 52.32 43.49, 86.69 2.48 M17.8 81.73 C34.06 62.92, 50.93 41.85, 86.69 2.48 M22.79 82.09 C49.51 52.55, 76.46 20.15, 91.68 2.84 M22.79 82.09 C43.36 59, 63.59 35.81, 91.68 2.84 M28.43 81.69 C45.19 64.89, 59.13 46.93, 97.32 2.45 M28.43 81.69 C44.34 62.94, 61.62 43.56, 97.32 2.45 M33.42 82.05 C53.3 58.79, 74.37 33.21, 102.31 2.81 M33.42 82.05 C49.45 64.45, 65.14 45.98, 102.31 2.81 M39.06 81.66 C55.44 65.19, 69.26 48.28, 107.95 2.41 M39.06 81.66 C57.17 60.03, 74.33 39.71, 107.95 2.41 M44.05 82.02 C59 66.79, 69.15 51.16, 112.94 2.77 M44.05 82.02 C71.55 51.71, 97.55 21.33, 112.94 2.77 M49.69 81.62 C78.51 51.22, 105.47 20.95, 118.58 2.38 M49.69 81.62 C64.83 65.48, 78.28 50.64, 118.58 2.38 M54.68 81.98 C82.79 53.91, 106.17 21.14, 123.57 2.74 M54.68 81.98 C71.23 61.57, 88.17 43.23, 123.57 2.74 M60.32 81.59 C77.1 64.63, 92.35 48.68, 129.21 2.34 M60.32 81.59 C81.17 57.63, 102.9 33.64, 129.21 2.34 M65.31 81.95 C80.83 65.16, 97.01 45.19, 134.2 2.7 M65.31 81.95 C91.3 51.06, 115.91 21.69, 134.2 2.7 M70.95 81.55 C88.65 61.27, 108.52 38.37, 139.18 3.06 M70.95 81.55 C85.97 65.36, 100.06 49.86, 139.18 3.06 M75.94 81.91 C103.7 53.55, 130.6 22.08, 144.83 2.67 M75.94 81.91 C96.26 57.58, 117.02 35.96, 144.83 2.67 M81.58 81.52 C106.65 52.92, 133.68 23.58, 149.81 3.03 M81.58 81.52 C105.24 54.43, 126.38 29.16, 149.81 3.03 M86.57 81.88 C108.2 59.62, 126.54 37.16, 155.46 2.64 M86.57 81.88 C103.9 62.33, 121.76 41.24, 155.46 2.64 M92.21 81.49 C111.72 59.37, 131.21 34.06, 160.44 3 M92.21 81.49 C112.39 57.56, 134.59 33.58, 160.44 3 M97.2 81.85 C111.64 63.61, 128.3 47.95, 166.09 2.6 M97.2 81.85 C115.56 62.21, 132.72 41.89, 166.09 2.6 M102.19 82.21 C115.76 63.88, 135.01 47.21, 171.07 2.96 M102.19 82.21 C123.87 58.82, 142.96 34.45, 171.07 2.96 M107.83 81.81 C130.36 52.65, 155.74 26.66, 176.72 2.57 M107.83 81.81 C123.57 65.33, 139.14 47.03, 176.72 2.57 M112.82 82.17 C137.29 54.19, 158.05 29.16, 181.7 2.93 M112.82 82.17 C134.99 55.54, 156.28 30.47, 181.7 2.93 M118.46 81.78 C133.6 64.65, 148.56 47.68, 187.35 2.53 M118.46 81.78 C132.99 64.46, 149.25 46.17, 187.35 2.53 M123.45 82.14 C150.19 51.19, 173.33 22.16, 192.33 2.89 M123.45 82.14 C145.15 55.71, 167.16 29.85, 192.33 2.89 M129.09 81.74 C146.51 59.67, 164.58 40.09, 197.98 2.5 M129.09 81.74 C146.26 63.66, 162.35 43.69, 197.98 2.5 M134.08 82.1 C153.17 60.37, 173.05 37.3, 202.96 2.86 M134.08 82.1 C153.71 59.95, 171.94 39.32, 202.96 2.86 M139.72 81.71 C160 59.28, 182.3 33.93, 208.61 2.46 M139.72 81.71 C154.76 63.99, 171.19 44.56, 208.61 2.46 M144.71 82.07 C171.24 51.29, 198.98 21.9, 213.59 2.82 M144.71 82.07 C164.18 58.57, 183.94 35.04, 213.59 2.82 M150.35 81.67 C170.51 61.38, 188.9 39.46, 219.24 2.43 M150.35 81.67 C166.65 62.15, 184.7 43.09, 219.24 2.43 M155.34 82.03 C172.94 61.91, 186.08 42.93, 224.22 2.79 M155.34 82.03 C179.69 57, 202.33 29.8, 224.22 2.79 M160.98 81.64 C179.17 61.89, 198.09 37.24, 229.21 3.15 M160.98 81.64 C183.21 56.62, 203.3 33.22, 229.21 3.15 M165.97 82 C189.58 56.05, 212.7 29.9, 234.85 2.75 M165.97 82 C184.22 60.85, 204.2 38.14, 234.85 2.75 M171.61 81.6 C190.64 57.96, 212.97 36.19, 239.84 3.11 M171.61 81.6 C195.32 53.98, 219.2 27.83, 239.84 3.11 M176.6 81.96 C203.25 53.96, 225.62 23.94, 245.48 2.72 M176.6 81.96 C193.72 61.19, 212.36 39.84, 245.48 2.72 M182.24 81.57 C203.33 56.9, 226.17 31.9, 250.47 3.08 M182.24 81.57 C200.29 62.41, 217.12 41.61, 250.47 3.08 M187.23 81.93 C201.31 63.78, 218.39 42.15, 256.11 2.69 M187.23 81.93 C209.69 57.35, 232.29 30.53, 256.11 2.69 M192.22 82.29 C206.38 68, 218.74 49.26, 261.1 3.05 M192.22 82.29 C207.87 63.63, 223.53 46.46, 261.1 3.05 M197.86 81.9 C211.69 62.97, 229.47 47.06, 266.74 2.65 M197.86 81.9 C222.58 50.93, 250.57 21.64, 266.74 2.65 M202.85 82.26 C217.66 65.13, 235.67 46.63, 271.73 3.01 M202.85 82.26 C220.2 62.38, 235.75 43.11, 271.73 3.01 M208.49 81.86 C235.31 52.57, 260.24 20.55, 277.37 2.62 M208.49 81.86 C226.72 62.57, 242.79 41.17, 277.37 2.62 M213.48 82.22 C238.91 54.37, 261.99 25.54, 282.36 2.98 M213.48 82.22 C239.1 52.64, 264.61 22.72, 282.36 2.98 M219.12 81.83 C245.71 53.1, 273.92 19.5, 288.01 2.58 M219.12 81.83 C233.53 64.38, 247.13 48.59, 288.01 2.58 M224.11 82.19 C246.5 59.06, 267.64 32.7, 292.99 2.94 M224.11 82.19 C239.07 63.27, 256.47 44.83, 292.99 2.94 M229.75 81.79 C249.18 56.99, 269.75 36.91, 298.64 2.55 M229.75 81.79 C246.15 62.61, 262.82 40.89, 298.64 2.55 M234.74 82.15 C258.62 56.45, 279.07 32.98, 303.62 2.91 M234.74 82.15 C261.24 51.2, 288.83 21.35, 303.62 2.91 M240.38 81.76 C260.37 57.97, 281.89 35.04, 309.27 2.51 M240.38 81.76 C254.63 64.52, 270.17 47.6, 309.27 2.51 M245.37 82.12 C272.43 52.17, 300.18 19.36, 314.25 2.87 M245.37 82.12 C270.04 53.6, 292.13 27.27, 314.25 2.87 M251.01 81.72 C269.89 59.81, 288.63 37.84, 319.9 2.48 M251.01 81.72 C271.73 58.57, 290.88 35.33, 319.9 2.48 M256 82.08 C274.25 62.52, 287.59 43.12, 324.88 2.84 M256 82.08 C277.57 57.7, 299.26 33.81, 324.88 2.84 M261.64 81.69 C287.93 49.31, 315.9 20.66, 329.87 3.2 M261.64 81.69 C280.76 59.83, 299.4 38.83, 329.87 3.2 M266.63 82.05 C291.03 51.6, 317.9 19.8, 335.51 2.8 M266.63 82.05 C285.51 59.55, 305.41 38.46, 335.51 2.8 M272.27 81.65 C290.84 60.82, 311.01 36.93, 340.5 3.16 M272.27 81.65 C293.4 56.45, 315.76 33.27, 340.5 3.16 M277.26 82.01 C303.17 51.2, 327.45 23.84, 346.14 2.77 M277.26 82.01 C298.32 56.71, 319.97 31.91, 346.14 2.77 M282.24 82.37 C303.35 57.46, 328.76 34.17, 351.13 3.13 M282.24 82.37 C308.95 50.18, 337.49 19.14, 351.13 3.13 M287.89 81.98 C315.51 49.9, 342.56 18.75, 356.77 2.73 M287.89 81.98 C307.57 59.05, 328.23 36.62, 356.77 2.73 M292.87 82.34 C315.78 58.03, 335.83 35.14, 361.76 3.09 M292.87 82.34 C309.52 63.82, 327.77 44.07, 361.76 3.09 M298.52 81.94 C318.88 56.4, 343.13 31.86, 367.4 2.7 M298.52 81.94 C323.42 52.57, 349.24 25.03, 367.4 2.7 M303.5 82.3 C328 52.42, 357.25 21.28, 372.39 3.06 M303.5 82.3 C317.5 65.36, 331.99 50.2, 372.39 3.06 M309.15 81.91 C334.74 49.54, 363.49 20.77, 378.03 2.67 M309.15 81.91 C328.22 60.84, 345.21 40.45, 378.03 2.67 M314.13 82.27 C335.34 55.35, 362.16 29.89, 384.99 0.76 M314.13 82.27 C339.45 52.94, 365.53 22.69, 384.99 0.76 M319.78 81.88 C344 54.79, 367.23 25.19, 388.66 2.63 M319.78 81.88 C334.21 65.84, 347.25 48.61, 388.66 2.63 M324.76 82.24 C342.97 59.37, 363.07 39.49, 392.99 3.75 M324.76 82.24 C343.34 62.11, 360.79 40.77, 392.99 3.75 M330.41 81.84 C353.88 56.88, 374.94 29.57, 396.01 6.37 M330.41 81.84 C356.85 52.17, 382.85 20.97, 396.01 6.37 M335.39 82.2 C349.99 67.38, 359.81 54.66, 398.38 9.75 M335.39 82.2 C358.17 56.28, 380.09 30.57, 398.38 9.75 M341.04 81.81 C362.07 55.68, 384.14 31.99, 400.74 13.13 M341.04 81.81 C361.04 58.13, 381.45 35.31, 400.74 13.13 M346.02 82.17 C365.82 59.63, 386.17 34.97, 399.82 20.28 M346.02 82.17 C363.44 61.62, 382.43 40.71, 399.82 20.28 M351.67 81.77 C364.52 67.32, 375 56.31, 400.22 25.92 M351.67 81.77 C367.03 64.61, 381.85 48.07, 400.22 25.92 M356.65 82.13 C372.47 63.98, 389.03 45.7, 399.95 32.32 M356.65 82.13 C367.77 69.64, 377.49 57.79, 399.95 32.32 M362.3 81.74 C372.54 71.94, 381.33 59.72, 399.69 38.72 M362.3 81.74 C373.2 70.76, 382.01 59.71, 399.69 38.72 M367.28 82.1 C375.48 73.93, 383.99 63.19, 400.09 44.36 M367.28 82.1 C378.29 69.24, 391.37 54.84, 400.09 44.36 M372.27 82.46 C380.87 73.59, 387.96 63.55, 399.83 50.76 M372.27 82.46 C382.6 70.84, 390.85 60.76, 399.83 50.76 M377.91 82.06 C386.26 72.93, 391.05 66.97, 399.56 57.16 M377.91 82.06 C383.99 74.28, 388.73 67.21, 399.56 57.16 M382.9 82.42 C387.36 75.15, 393.34 68.6, 399.96 62.8 M382.9 82.42 C385.93 77.46, 390.59 72.88, 399.96 62.8 M390.51 79.76 C391.99 77.5, 394.48 72.57, 401.67 66.93 M390.51 79.76 C393.02 77.49, 395.52 73.49, 401.67 66.93" stroke="#a5d8ff" stroke-width="0.5" fill="none"></path><path d="M20 0 M20 0 C154.59 -0.91, 291.8 -0.8, 380 0 M20 0 C124.92 0.31, 230.46 -0.36, 380 0 M380 0 C393.66 1.53, 401.72 5.53, 400 20 M380 0 C393.75 0.81, 401.17 4.81, 400 20 M400 20 C400.81 29.44, 399.62 35.17, 400 60 M400 20 C399.05 34.83, 399.32 50.89, 400 60 M400 60 C399.04 73.92, 391.51 78.18, 380 80 M400 60 C398.24 75.38, 395.43 78.72, 380 80 M380 80 C294.45 77.21, 209.95 78.62, 20 80 M380 80 C289.8 78.74, 198.98 79.05, 20 80 M20 80 C5.86 80.73, -1.07 75.31, 0 60 M20 80 C8.03 78.92, 2.27 75.28, 0 60 M0 60 C0.47 51.32, -0.26 42.77, 0 20 M0 60 C-0.52 43.68, -0.41 28.55, 0 20 M0 20 C-0.29 7.5, 7.3 0.02, 20 0 M0 20 C-0.89 8.77, 7.28 -1.94, 20 0" stroke="#1e1e1e" stroke-width="1" fill="none"></path></g><g transform="translate(355.05833435058594 285) rotate(0 54.94166564941406 25)"><text x="54.94166564941406" y="0" font-family="Virgil, Segoe UI Emoji" font-size="20px" fill="#1e1e1e" text-anchor="middle" style="white-space: pre;" direction="ltr" dominant-baseline="text-before-edge">Chargement</text><text x="54.94166564941406" y="25" font-family="Virgil, Segoe UI Emoji" font-size="20px" fill="#1e1e1e" text-anchor="middle" style="white-space: pre;" direction="ltr" dominant-baseline="text-before-edge">JS App</text></g><g stroke-linecap="round" transform="translate(610 270) rotate(0 60 40)"><path d="M2.85 7.77 C2.85 7.77, 2.85 7.77, 2.85 7.77 M2.85 7.77 C2.85 7.77, 2.85 7.77, 2.85 7.77 M1.27 15.68 C4.36 11.89, 7.08 8.55, 10.46 5.12 M1.27 15.68 C4.68 12.62, 7.25 7.77, 10.46 5.12 M1.01 22.08 C4.89 15.49, 12.38 10.63, 20.04 0.19 M1.01 22.08 C5.93 16.84, 8.74 11.63, 20.04 0.19 M0.75 28.48 C4.42 23.96, 9.81 17.67, 25.68 -0.2 M0.75 28.48 C9.89 18.71, 19.02 8.06, 25.68 -0.2 M1.14 34.12 C12.01 21.76, 23.21 9.1, 30.67 0.16 M1.14 34.12 C6.64 27.03, 13.78 19.96, 30.67 0.16 M0.88 40.52 C14.52 25.04, 27.41 8.2, 36.31 -0.24 M0.88 40.52 C13.83 26.2, 26.06 11.21, 36.31 -0.24 M1.28 46.16 C14.15 29.69, 25.13 18.91, 41.3 0.12 M1.28 46.16 C13.95 29.44, 29.1 14.46, 41.3 0.12 M1.02 52.56 C14.55 39.6, 24.72 23.48, 46.94 -0.27 M1.02 52.56 C20.05 32.72, 36.58 12.15, 46.94 -0.27 M0.75 58.96 C18.97 36.81, 40.51 14.91, 51.93 0.09 M0.75 58.96 C14.74 43.73, 27.29 28.41, 51.93 0.09 M0.49 65.35 C21.34 39.96, 42.75 14.81, 56.91 0.45 M0.49 65.35 C14.91 49.35, 27.33 34.28, 56.91 0.45 M2.2 69.49 C22.15 48.03, 42.57 24.08, 62.56 0.05 M2.2 69.49 C24.7 44.76, 47.63 17.46, 62.56 0.05 M3.91 73.62 C22.02 55.28, 36.09 32.96, 67.54 0.41 M3.91 73.62 C17.28 56.75, 29.89 42.62, 67.54 0.41 M6.93 76.25 C32.72 45.32, 56.81 16.04, 73.19 0.02 M6.93 76.25 C25.41 56.33, 43.15 34.64, 73.19 0.02 M9.94 78.87 C36.36 51.64, 58.57 23.92, 78.17 0.38 M9.94 78.87 C34.93 48.94, 62.53 18.51, 78.17 0.38 M14.27 79.98 C37.22 52.55, 57.95 26, 83.82 -0.01 M14.27 79.98 C37.91 51.66, 62.9 22.41, 83.82 -0.01 M18.61 81.1 C33.29 62.32, 46.06 48.11, 88.8 0.35 M18.61 81.1 C41.8 54.98, 64.85 28.78, 88.8 0.35 M22.94 82.21 C44.67 58.73, 64.33 38.51, 94.45 -0.05 M22.94 82.21 C36.55 65.42, 51.93 48.37, 94.45 -0.05 M27.92 82.57 C43.4 65.19, 59.58 42.54, 99.43 0.31 M27.92 82.57 C43.37 64.67, 57.82 47.27, 99.43 0.31 M33.57 82.18 C55.81 60.17, 71.84 35.74, 103.11 2.18 M33.57 82.18 C59.08 50.91, 85.93 20.8, 103.11 2.18 M38.55 82.54 C61.36 56.67, 86.02 25.98, 107.44 3.3 M38.55 82.54 C57.3 61.14, 77.48 37.27, 107.44 3.3 M44.2 82.15 C67.39 55.73, 88.98 30.74, 112.43 3.66 M44.2 82.15 C61.18 62.27, 78.55 43.88, 112.43 3.66 M49.18 82.51 C72.31 55.72, 91.93 32.05, 115.45 6.28 M49.18 82.51 C73.55 53.24, 98.72 25.41, 115.45 6.28 M54.83 82.11 C75.08 56.63, 98.78 33.91, 118.46 8.9 M54.83 82.11 C77.51 55.13, 100.67 30.38, 118.46 8.9 M59.81 82.47 C73.96 63.04, 89.56 47.63, 120.17 13.04 M59.81 82.47 C73.8 66.37, 87.31 50.91, 120.17 13.04 M65.46 82.08 C84.03 56.77, 107.91 34.98, 121.88 17.17 M65.46 82.08 C79.12 67.29, 90.24 53.09, 121.88 17.17 M70.44 82.44 C83.8 65.22, 99.51 44.71, 121.62 23.57 M70.44 82.44 C86.57 61.76, 104.84 42.18, 121.62 23.57 M76.09 82.04 C85.81 71.03, 97.22 58.68, 122.01 29.21 M76.09 82.04 C93.63 61.6, 111.5 40.59, 122.01 29.21 M81.07 82.4 C94.71 67.56, 108.93 53.17, 121.75 35.61 M81.07 82.4 C94.4 66.67, 109.9 49.04, 121.75 35.61 M86.06 82.76 C99.94 64.53, 116.1 50.3, 122.14 41.25 M86.06 82.76 C100.29 68.55, 112.83 53.35, 122.14 41.25 M91.7 82.37 C98.38 73.43, 104.61 67.29, 121.88 47.65 M91.7 82.37 C98.79 73.93, 105.73 67.12, 121.88 47.65 M96.69 82.73 C100.19 75.19, 105.69 70.48, 122.28 53.29 M96.69 82.73 C102.77 75.87, 110.97 67.8, 122.28 53.29 M102.33 82.33 C108.24 75.89, 111.73 72.92, 120.7 61.2 M102.33 82.33 C107.15 76.07, 111.26 71.14, 120.7 61.2 M109.29 80.43 C110.69 77.43, 112.81 74.08, 119.13 69.11 M109.29 80.43 C113.4 76.98, 115.9 72.56, 119.13 69.11" stroke="#ffec99" stroke-width="0.5" fill="none"></path><path d="M20 0 M20 0 C46.88 1.65, 74.99 0.24, 100 0 M20 0 C45.72 0.08, 70.23 -0.29, 100 0 M100 0 C111.71 1.62, 119.19 5.17, 120 20 M100 0 C113.51 2, 118.12 7.28, 120 20 M120 20 C119.76 32.58, 118.36 43.45, 120 60 M120 20 C120.65 30.34, 119.26 43.05, 120 60 M120 60 C119.44 73.96, 114.76 81.56, 100 80 M120 60 C121.91 71.98, 111.5 80.66, 100 80 M100 80 C68.92 80.34, 39.55 80.02, 20 80 M100 80 C80.26 79.82, 60.82 79.89, 20 80 M20 80 C8.01 79.27, 1.46 72.89, 0 60 M20 80 C8.05 81.75, -2.16 72.51, 0 60 M0 60 C-1.41 44.7, -1.6 30.55, 0 20 M0 60 C-1.1 46.89, 0.3 31.25, 0 20 M0 20 C0.83 8.53, 6.51 1.83, 20 0 M0 20 C-0.11 5.03, 8.78 1.21, 20 0" stroke="#1e1e1e" stroke-width="1" fill="none"></path></g><g transform="translate(623.091667175293 285) rotate(0 46.90833282470703 25)"><text x="46.90833282470703" y="0" font-family="Virgil, Segoe UI Emoji" font-size="20px" fill="#1e1e1e" text-anchor="middle" style="white-space: pre;" direction="ltr" dominant-baseline="text-before-edge">Rendu</text><text x="46.90833282470703" y="25" font-family="Virgil, Segoe UI Emoji" font-size="20px" fill="#1e1e1e" text-anchor="middle" style="white-space: pre;" direction="ltr" dominant-baseline="text-before-edge">squelette</text></g><g stroke-linecap="round" transform="translate(830 70) rotate(0 100 38.5)"><path d="M5.12 4.45 C5.12 4.45, 5.12 4.45, 5.12 4.45 M5.12 4.45 C5.12 4.45, 5.12 4.45, 5.12 4.45 M0.93 15.38 C2.96 11.21, 7.42 10.44, 12.08 2.55 M0.93 15.38 C5.38 11.66, 8.91 6.74, 12.08 2.55 M0.66 21.78 C9.01 12.99, 12.82 5.24, 19.69 -0.11 M0.66 21.78 C8.4 12.61, 14.58 6, 19.69 -0.11 M1.06 27.42 C5.24 20.68, 11.44 15.29, 24.68 0.25 M1.06 27.42 C5.91 19.9, 12.98 13.44, 24.68 0.25 M0.8 33.82 C9.92 22.13, 19.26 11.98, 30.32 -0.14 M0.8 33.82 C11.89 21.45, 24.71 7.36, 30.32 -0.14 M1.19 39.46 C9.85 32.53, 14.75 22.89, 35.31 0.22 M1.19 39.46 C7.75 30.74, 16.1 22.26, 35.31 0.22 M0.93 45.86 C8.98 35.17, 20.79 23.1, 40.95 -0.18 M0.93 45.86 C16.23 27, 32.97 8.83, 40.95 -0.18 M0.67 52.26 C16.7 34.79, 30.91 17.25, 45.94 0.18 M0.67 52.26 C17.43 33.87, 35.38 14.06, 45.94 0.18 M1.06 57.9 C17.04 41.24, 32.48 23.92, 50.92 0.54 M1.06 57.9 C15.36 42.29, 28.65 26.01, 50.92 0.54 M1.46 63.54 C19.77 42.85, 36.63 22.57, 56.57 0.15 M1.46 63.54 C14.95 48.99, 26.53 35.08, 56.57 0.15 M3.17 67.68 C21.41 46.82, 40.83 24.53, 61.55 0.51 M3.17 67.68 C15.57 52.57, 27.4 38.92, 61.55 0.51 M5.53 71.06 C28.95 43.89, 54.99 16.87, 67.2 0.11 M5.53 71.06 C17.11 57.29, 31.84 41.44, 67.2 0.11 M7.89 74.44 C21.79 57.31, 34.47 44.38, 72.18 0.47 M7.89 74.44 C25.91 53.55, 45.58 31.96, 72.18 0.47 M11.57 76.3 C30.45 56.29, 47.04 36.14, 77.83 0.08 M11.57 76.3 C33.51 51.41, 54.29 26.96, 77.83 0.08 M15.9 77.42 C28.88 61.07, 45.45 41.69, 82.81 0.44 M15.9 77.42 C34.53 57.45, 51.67 36.48, 82.81 0.44 M20.88 77.78 C48.94 45.19, 72.6 16, 88.46 0.04 M20.88 77.78 C40.3 55.93, 58.24 36.16, 88.46 0.04 M25.87 78.14 C50.14 48.26, 75.46 22.28, 93.44 0.4 M25.87 78.14 C40.66 62.1, 54.3 45.28, 93.44 0.4 M30.86 78.5 C46.62 59.02, 62.17 39.51, 99.09 0.01 M30.86 78.5 C55.65 51.16, 78.15 25.25, 99.09 0.01 M36.5 78.11 C58.11 51.24, 82.66 25.12, 104.08 0.37 M36.5 78.11 C52.43 60.06, 69.05 41.36, 104.08 0.37 M41.49 78.47 C67.26 49.13, 94.37 18.74, 109.72 -0.02 M41.49 78.47 C61.96 53.91, 82.44 30.43, 109.72 -0.02 M47.13 78.07 C73.89 45.33, 101.54 15.48, 114.71 0.34 M47.13 78.07 C61.46 60.25, 77.59 42.12, 114.71 0.34 M52.12 78.43 C70.85 53.8, 92.12 32.44, 120.35 -0.06 M52.12 78.43 C73.33 53.84, 96.37 27.6, 120.35 -0.06 M57.76 78.04 C81.08 47, 107.94 21.14, 125.34 0.3 M57.76 78.04 C74.48 58.6, 91.18 39.1, 125.34 0.3 M62.75 78.4 C87.56 50.28, 111.13 26.23, 130.98 -0.09 M62.75 78.4 C80.77 58.62, 97.22 36.8, 130.98 -0.09 M68.39 78 C91.61 49.3, 116.37 21.22, 135.97 0.27 M68.39 78 C90.79 52.15, 116.02 23.21, 135.97 0.27 M73.38 78.36 C97.77 51.53, 117.81 26.66, 141.61 -0.13 M73.38 78.36 C97.56 50.77, 121.57 21.88, 141.61 -0.13 M79.02 77.97 C99.32 56.69, 115.78 35.88, 146.6 0.23 M79.02 77.97 C93.31 62.19, 106.07 45.13, 146.6 0.23 M84.01 78.33 C100.86 59.35, 117.89 39.49, 152.24 -0.16 M84.01 78.33 C105.32 53.94, 128.02 27.4, 152.24 -0.16 M89.65 77.93 C109.51 52.89, 128.87 31.36, 157.23 0.2 M89.65 77.93 C106.07 60.39, 120.81 42, 157.23 0.2 M94.64 78.29 C110.75 61.82, 126.69 43.21, 162.87 -0.2 M94.64 78.29 C115.54 53.68, 138.02 28.82, 162.87 -0.2 M100.28 77.9 C126.3 51.82, 149.75 21.68, 167.86 0.16 M100.28 77.9 C119.18 56.72, 138.41 34.36, 167.86 0.16 M105.27 78.26 C119.36 60.69, 134.39 43.9, 172.84 0.52 M105.27 78.26 C127.98 54.32, 148.07 28.79, 172.84 0.52 M110.91 77.86 C134.84 49.63, 156.82 25.01, 178.49 0.13 M110.91 77.86 C133.31 51.55, 155.51 25.83, 178.49 0.13 M115.9 78.22 C141.95 50.65, 165.68 18.95, 182.82 1.24 M115.9 78.22 C137.8 54.44, 160.19 28.15, 182.82 1.24 M121.54 77.83 C140.08 58.19, 159.29 34.38, 187.15 2.36 M121.54 77.83 C135.39 59.74, 152.14 43.03, 187.15 2.36 M126.53 78.19 C141.03 62.75, 154.67 46.68, 191.48 3.47 M126.53 78.19 C142.18 59.35, 159.04 41.02, 191.48 3.47 M132.17 77.79 C151.23 55.24, 168.3 34.05, 195.15 5.34 M132.17 77.79 C152.14 53.05, 175.35 28.84, 195.15 5.34 M137.16 78.15 C148.47 62.53, 161.08 49.3, 197.52 8.72 M137.16 78.15 C158.52 53.26, 179.27 30.84, 197.52 8.72 M142.15 78.52 C158.83 58.42, 175.87 38.96, 199.22 12.86 M142.15 78.52 C158.81 60.46, 172.45 43.18, 199.22 12.86 M147.79 78.12 C163.46 59.89, 178.14 41.82, 201.59 16.23 M147.79 78.12 C170.09 54.53, 190.97 28.61, 201.59 16.23 M152.78 78.48 C165.55 63.24, 180.1 46.88, 201.32 22.63 M152.78 78.48 C169.45 57.68, 188.74 36.51, 201.32 22.63 M158.42 78.09 C172.78 64.4, 184.87 48.33, 201.72 28.28 M158.42 78.09 C172.62 60.18, 188.67 43.96, 201.72 28.28 M163.41 78.45 C170.27 70.49, 182.19 58.06, 201.46 34.67 M163.41 78.45 C172.38 69.63, 181.14 59.36, 201.46 34.67 M169.05 78.05 C179.73 65.87, 189.69 54.73, 201.85 40.32 M169.05 78.05 C177.42 69.86, 184.86 59.6, 201.85 40.32 M174.04 78.41 C179.17 71.56, 185.07 64.32, 201.59 46.71 M174.04 78.41 C184.08 66.91, 194.34 55.82, 201.59 46.71 M179.68 78.02 C184.85 72.42, 187.27 69.19, 201.99 52.36 M179.68 78.02 C187.54 69.26, 193.23 62.69, 201.99 52.36 M183.35 79.89 C189.24 74.09, 194.24 66.53, 201.72 58.75 M183.35 79.89 C189.19 73.03, 197.11 64.8, 201.72 58.75" stroke="#b2f2bb" stroke-width="0.5" fill="none"></path><path d="M19.25 0 M19.25 0 C79.29 -2.62, 136.17 -2.31, 180.75 0 M19.25 0 C66.29 0.6, 113.92 0.48, 180.75 0 M180.75 0 C194.99 1.18, 199.19 4.69, 200 19.25 M180.75 0 C193.6 0.08, 200.88 6.33, 200 19.25 M200 19.25 C200.2 27.35, 201.09 36.49, 200 57.75 M200 19.25 C199.98 31, 199.39 42.61, 200 57.75 M200 57.75 C199.33 69.3, 195.21 77.86, 180.75 77 M200 57.75 C198.26 72.37, 191.68 77.88, 180.75 77 M180.75 77 C131.7 76.39, 80.64 77.13, 19.25 77 M180.75 77 C121.55 77.79, 61.76 79.4, 19.25 77 M19.25 77 C7.53 75.75, -0.83 69.94, 0 57.75 M19.25 77 C7.28 76.6, -0.12 71.89, 0 57.75 M0 57.75 C0.67 41.95, 1.64 27.86, 0 19.25 M0 57.75 C1.16 45.32, -0.26 32.16, 0 19.25 M0 19.25 C1.75 4.53, 4.47 -1.72, 19.25 0 M0 19.25 C1.08 7.41, 4.31 2.13, 19.25 0" stroke="#1e1e1e" stroke-width="1" fill="none"></path></g><g transform="translate(883.375 83.5) rotate(0 46.625 25)"><text x="46.625" y="0" font-family="Virgil, Segoe UI Emoji" font-size="20px" fill="#1e1e1e" text-anchor="middle" style="white-space: pre;" direction="ltr" dominant-baseline="text-before-edge">Requêtes</text><text x="46.625" y="25" font-family="Virgil, Segoe UI Emoji" font-size="20px" fill="#1e1e1e" text-anchor="middle" style="white-space: pre;" direction="ltr" dominant-baseline="text-before-edge">BDD</text></g><g stroke-linecap="round" transform="translate(1130 270) rotate(0 100 40)"><path d="M2.85 7.77 C2.85 7.77, 2.85 7.77, 2.85 7.77 M2.85 7.77 C2.85 7.77, 2.85 7.77, 2.85 7.77 M1.27 15.68 C3.76 13.55, 5.59 11.4, 10.46 5.12 M1.27 15.68 C3.43 12.37, 7.36 9.11, 10.46 5.12 M1.01 22.08 C6 13.54, 10.71 7.37, 20.04 0.19 M1.01 22.08 C7.5 13.76, 15.08 5.98, 20.04 0.19 M0.75 28.48 C7.78 19.46, 17.63 12.15, 25.68 -0.2 M0.75 28.48 C7.42 22.72, 11.76 14.8, 25.68 -0.2 M1.14 34.12 C10.32 24.57, 20.07 12.09, 30.67 0.16 M1.14 34.12 C9.46 23.85, 18.32 13.47, 30.67 0.16 M0.88 40.52 C9.87 31.38, 18.91 19.8, 36.31 -0.24 M0.88 40.52 C15.12 24.56, 28.15 10.29, 36.31 -0.24 M1.28 46.16 C10.92 35.57, 19.67 25.93, 41.3 0.12 M1.28 46.16 C10.24 36.35, 19.89 25.28, 41.3 0.12 M1.02 52.56 C13.16 38.72, 26.94 27.06, 46.94 -0.27 M1.02 52.56 C19.5 31.15, 37.25 11.54, 46.94 -0.27 M0.75 58.96 C14.81 42.48, 33.17 24.95, 51.93 0.09 M0.75 58.96 C11.09 46.83, 22.49 33.95, 51.93 0.09 M0.49 65.35 C12.57 52.02, 21.32 38.46, 56.91 0.45 M0.49 65.35 C17.35 45.86, 34.62 24.25, 56.91 0.45 M2.86 68.73 C16.02 52.79, 26.67 41.22, 62.56 0.05 M2.86 68.73 C17.03 52.38, 32.11 34.29, 62.56 0.05 M4.56 72.87 C26.51 49.96, 45.65 23.84, 67.54 0.41 M4.56 72.87 C22.7 50.72, 41.09 29.71, 67.54 0.41 M6.93 76.25 C29.15 48.13, 55.34 18.52, 73.19 0.02 M6.93 76.25 C31.92 48.24, 57.95 18.5, 73.19 0.02 M9.94 78.87 C30.01 57.01, 46.23 37.97, 78.17 0.38 M9.94 78.87 C25.45 59.14, 42.33 40.97, 78.17 0.38 M13.62 80.74 C28.54 65.44, 44.25 46.61, 83.82 -0.01 M13.62 80.74 C40.7 51.23, 66.7 20.79, 83.82 -0.01 M18.61 81.1 C40.4 54.5, 61.6 28.41, 88.8 0.35 M18.61 81.1 C44.74 49.68, 71.89 20.96, 88.8 0.35 M22.94 82.21 C47.36 55.15, 69.26 29.51, 94.45 -0.05 M22.94 82.21 C40.56 60.68, 59.16 39.87, 94.45 -0.05 M27.92 82.57 C51.45 50.4, 79.05 20.81, 99.43 0.31 M27.92 82.57 C46.6 59.94, 66.28 37.83, 99.43 0.31 M33.57 82.18 C58.61 52.42, 85.87 25.98, 105.08 -0.08 M33.57 82.18 C58.82 52.54, 85.8 21.61, 105.08 -0.08 M38.55 82.54 C53.15 67.61, 69.31 49.9, 110.06 0.28 M38.55 82.54 C54 62.79, 71.23 45.7, 110.06 0.28 M44.2 82.15 C60.75 60.22, 79.45 38.62, 115.71 -0.12 M44.2 82.15 C65.87 57.81, 87.03 32.25, 115.71 -0.12 M49.18 82.51 C64.11 62.69, 79.67 45.75, 120.69 0.24 M49.18 82.51 C67.97 59.65, 87.91 35.97, 120.69 0.24 M54.83 82.11 C72.86 60.91, 89.83 41.11, 126.34 -0.15 M54.83 82.11 C79.48 53.84, 104.31 24.97, 126.34 -0.15 M59.81 82.47 C78.86 59.59, 97.37 39.32, 131.32 0.21 M59.81 82.47 C86.83 51.3, 113.64 19.83, 131.32 0.21 M65.46 82.08 C82.07 63.93, 99.21 42.64, 136.97 -0.19 M65.46 82.08 C84.48 58.33, 105.27 36.11, 136.97 -0.19 M70.44 82.44 C97.22 50.05, 125.45 20.8, 141.95 0.17 M70.44 82.44 C91.42 58.7, 112.41 34.81, 141.95 0.17 M76.09 82.04 C94.44 59.48, 112.53 36.95, 147.6 -0.22 M76.09 82.04 C102.52 50.16, 130.21 17.69, 147.6 -0.22 M81.07 82.4 C103.37 57.74, 126.11 32.91, 152.58 0.14 M81.07 82.4 C95.32 65.16, 111.25 47.28, 152.58 0.14 M86.06 82.76 C101.16 65.24, 116.61 49.16, 158.23 -0.26 M86.06 82.76 C113.34 50.41, 142.93 16.47, 158.23 -0.26 M91.7 82.37 C104.41 64.27, 121.24 47.29, 163.21 0.1 M91.7 82.37 C115.91 53.75, 141.44 25.06, 163.21 0.1 M96.69 82.73 C114.44 61.29, 132.89 42.69, 168.2 0.46 M96.69 82.73 C122.13 51.34, 149.21 22.49, 168.2 0.46 M102.33 82.33 C122.02 58.27, 138.73 38.29, 173.84 0.07 M102.33 82.33 C117.14 64.61, 133.31 48.24, 173.84 0.07 M107.32 82.69 C127.71 60.39, 147.13 37.2, 178.83 0.43 M107.32 82.69 C122.04 65.91, 136.05 48.68, 178.83 0.43 M112.96 82.3 C133.31 58.55, 156.89 31.89, 182.51 2.3 M112.96 82.3 C131.18 61.95, 148.85 40.98, 182.51 2.3 M117.95 82.66 C136.24 63.36, 153.75 41.37, 187.49 2.66 M117.95 82.66 C141.05 55.25, 165.46 28.49, 187.49 2.66 M123.59 82.26 C136.49 65.85, 152.17 45.8, 191.82 3.77 M123.59 82.26 C140.85 61.7, 158.37 41.06, 191.82 3.77 M128.58 82.62 C143.43 63.71, 159.2 46.97, 195.5 5.64 M128.58 82.62 C145.12 64.67, 159.77 47.28, 195.5 5.64 M134.22 82.23 C154.05 59.08, 174.84 38.64, 197.21 9.78 M134.22 82.23 C157.62 55.83, 181.05 28.31, 197.21 9.78 M139.21 82.59 C162.49 56.44, 181.02 34, 199.57 13.16 M139.21 82.59 C156.08 62.25, 174.6 40.18, 199.57 13.16 M144.85 82.19 C163.92 62.58, 182.62 39.42, 201.28 17.29 M144.85 82.19 C159.34 66.51, 173.36 50.45, 201.28 17.29 M149.84 82.56 C162.73 68.58, 174.97 52.37, 201.67 22.93 M149.84 82.56 C169.62 59.65, 190.65 36.44, 201.67 22.93 M155.48 82.16 C167.86 69.97, 175.58 57.91, 201.41 29.33 M155.48 82.16 C168.79 66.45, 179.57 53.8, 201.41 29.33 M160.47 82.52 C170.67 69.15, 181.74 56.45, 201.8 34.97 M160.47 82.52 C171.07 69.36, 183.08 57.09, 201.8 34.97 M166.12 82.13 C178.62 68.65, 188.22 55.99, 201.54 41.37 M166.12 82.13 C178.67 66.55, 192.93 50.6, 201.54 41.37 M171.1 82.49 C180.72 67.66, 195.81 54.08, 201.94 47.01 M171.1 82.49 C181.95 69.59, 192.62 57.01, 201.94 47.01 M176.75 82.09 C188.32 70.24, 197.37 60.19, 201.68 53.41 M176.75 82.09 C184.21 75.26, 189.78 66.61, 201.68 53.41 M182.39 81.7 C189.49 75.36, 192.78 69.43, 200.76 60.57 M182.39 81.7 C189.25 73.44, 196.77 65.53, 200.76 60.57 M188.69 80.55 C192.04 76.18, 197.7 70.71, 199.18 68.47 M188.69 80.55 C192.35 77.57, 195.24 73.84, 199.18 68.47" stroke="#ffc9c9" stroke-width="0.5" fill="none"></path><path d="M20 0 M20 0 C54.14 1.24, 86.5 1.39, 180 0 M20 0 C81.52 0.8, 141.39 1.3, 180 0 M180 0 C192.45 -0.53, 199.9 8.19, 200 20 M180 0 C194.59 -0.93, 197.73 5.23, 200 20 M200 20 C200.11 35.16, 198.31 50.76, 200 60 M200 20 C200.13 27.77, 201.12 35.34, 200 60 M200 60 C200.83 73.24, 194.52 80.52, 180 80 M200 60 C199.19 71.79, 195.01 79.93, 180 80 M180 80 C117.6 79.33, 53.71 79.02, 20 80 M180 80 C143.14 80.27, 103.82 82.17, 20 80 M20 80 C5.2 78.73, -1.13 72.36, 0 60 M20 80 C8.64 80.14, -0.84 72.27, 0 60 M0 60 C-1.3 51.87, 0.76 41.85, 0 20 M0 60 C0.76 50.38, -0.85 41.03, 0 20 M0 20 C0.89 4.81, 5.35 -0.2, 20 0 M0 20 C1.66 8.48, 6.95 -2.26, 20 0" stroke="#1e1e1e" stroke-width="1" fill="none"></path></g><g transform="translate(1192.375 285) rotate(0 37.625 25)"><text x="37.625" y="0" font-family="Virgil, Segoe UI Emoji" font-size="20px" fill="#1e1e1e" text-anchor="middle" style="white-space: pre;" direction="ltr" dominant-baseline="text-before-edge">Rendu</text><text x="37.625" y="25" font-family="Virgil, Segoe UI Emoji" font-size="20px" fill="#1e1e1e" text-anchor="middle" style="white-space: pre;" direction="ltr" dominant-baseline="text-before-edge">données</text></g><g stroke-linecap="round"><g transform="translate(110.99740291900935 110.62340954355895) rotate(0 49.501558513827604 79.54391492884606)"><path d="M0.3 -0.62 C17.16 25.81, 83.64 133.05, 100 159.71 M-1 1.66 C15.9 28.23, 83.18 131.27, 99.58 157.76" stroke="#1e1e1e" stroke-width="1" fill="none"></path></g><g transform="translate(110.99740291900935 110.62340954355895) rotate(0 49.501558513827604 79.54391492884606)"><path d="M74.72 141.18 C81.31 142.21, 85.47 145.33, 97.65 156.16 M76.48 139.92 C81.51 143.88, 86.39 148.15, 100.19 158.56" stroke="#1e1e1e" stroke-width="1" fill="none"></path></g><g transform="translate(110.99740291900935 110.62340954355895) rotate(0 49.501558513827604 79.54391492884606)"><path d="M92.02 130.14 C95.21 133.45, 95.88 138.8, 97.65 156.16 M93.78 128.89 C94.96 135.26, 95.99 141.99, 100.19 158.56" stroke="#1e1e1e" stroke-width="1" fill="none"></path></g></g><mask></mask><g stroke-linecap="round"><g transform="translate(731 288.677854886625) rotate(0 51.96849742137505 -69.50392566880772)"><path d="M-0.98 0.73 C16.25 -22.67, 85.21 -116.48, 102.84 -139.74 M0.71 0.07 C18.34 -23.28, 87.64 -115.81, 104.92 -138.76" stroke="#1e1e1e" stroke-width="1" fill="none"></path></g><g transform="translate(731 288.677854886625) rotate(0 51.96849742137505 -69.50392566880772)"><path d="M97.41 -112.05 C96.47 -116, 100.18 -124.46, 104.56 -137.32 M96.47 -110.96 C99.22 -117.04, 100.35 -124.6, 104.9 -138.77" stroke="#1e1e1e" stroke-width="1" fill="none"></path></g><g transform="translate(731 288.677854886625) rotate(0 51.96849742137505 -69.50392566880772)"><path d="M81 -124.37 C84.28 -125.07, 92.13 -130.42, 104.56 -137.32 M80.06 -123.28 C86.75 -126.36, 91.82 -130.98, 104.9 -138.77" stroke="#1e1e1e" stroke-width="1" fill="none"></path></g></g><mask></mask><g stroke-linecap="round"><g transform="translate(1030.8842787573662 150.63482061019903) rotate(0 48.84849828961535 59.367340212996574)"><path d="M-1.08 -0.87 C15.26 18.94, 82.33 98.49, 98.77 118.25 M0.56 1.3 C16.7 21.32, 81.41 100.06, 97.98 119.6" stroke="#1e1e1e" stroke-width="1" fill="none"></path></g><g transform="translate(1030.8842787573662 150.63482061019903) rotate(0 48.84849828961535 59.367340212996574)"><path d="M70.61 104.99 C80.77 108.69, 89.19 117.16, 97.17 117.84 M71.09 104.58 C80.23 108.73, 87.4 112.72, 97.07 119.1" stroke="#1e1e1e" stroke-width="1" fill="none"></path></g><g transform="translate(1030.8842787573662 150.63482061019903) rotate(0 48.84849828961535 59.367340212996574)"><path d="M86.38 91.86 C90.78 100.16, 93.5 113.38, 97.17 117.84 M86.86 91.45 C91.18 99.66, 93.57 107.63, 97.07 119.1" stroke="#1e1e1e" stroke-width="1" fill="none"></path></g></g><mask></mask><g transform="translate(10 90) rotate(0 36.53333282470703 12.5)"><text x="36.53333282470703" y="0" font-family="Virgil, Segoe UI Emoji" font-size="20px" fill="#1e1e1e" text-anchor="middle" style="white-space: pre;" direction="ltr" dominant-baseline="text-before-edge">Serveur</text></g><g transform="translate(30 290) rotate(0 27.049999237060547 12.5)"><text x="27.049999237060547" y="0" font-family="Virgil, Segoe UI Emoji" font-size="20px" fill="#1e1e1e" text-anchor="middle" style="white-space: pre;" direction="ltr" dominant-baseline="text-before-edge">Client</text></g><g stroke-linecap="round"><g transform="translate(110 10) rotate(0 1.0863156154844944 198.923547478579)"><path d="M0.99 0.96 C0.85 67.15, 0.17 331.62, 0 397.43 M0.06 0.42 C0.2 66.25, 1.8 329.71, 2.17 395.75" stroke="#1e1e1e" stroke-width="1" fill="none"></path></g></g><mask></mask><g stroke-linecap="round"><g transform="translate(110 410) rotate(0 649.6469674225897 -0.6138075240701397)"><path d="M0.74 0.51 C217.47 0.42, 1082.92 0.14, 1299.63 0.25 M-0.33 -0.26 C216.27 -0.81, 1081.64 -1.69, 1298.48 -1.74" stroke="#1e1e1e" stroke-width="1" fill="none"></path></g></g><mask></mask><g stroke-linecap="round"><g transform="translate(111.70024427613237 211.83719936196348) rotate(0 648.7493200744502 -1.667787009456518)"><path d="M-0.16 0.26 C216.24 -0.02, 1082.81 -1.29, 1299.2 -1.6 M-1.7 -0.65 C214.54 -1.31, 1082.21 -3.68, 1298.72 -3.59" stroke="#1e1e1e" stroke-width="1" fill="none"></path></g></g><mask></mask><g stroke-linecap="round"><g transform="translate(730 10) rotate(0 0.13021752880263193 219.4033791312948)"><path d="M0.23 0.35 C0.17 73.52, -0.05 365.26, 0.06 438.46" stroke="#1e1e1e" stroke-width="1.5" fill="none" stroke-dasharray="8 9"></path></g></g><mask></mask><g stroke-linecap="round"><g transform="translate(1329.893330596015 8.961200233176328) rotate(0 0.4584415761753462 221.4333235623315)"><path d="M0.11 1.04 C0.19 74.87, 0.79 368.32, 0.81 441.83" stroke="#1e1e1e" stroke-width="1.5" fill="none" stroke-dasharray="8 9"></path></g></g><mask></mask><g transform="translate(710 450) rotate(0 18.79166603088379 12.5)"><text x="18.79166603088379" y="0" font-family="Virgil, Segoe UI Emoji" font-size="20px" fill="#1e1e1e" text-anchor="middle" style="white-space: pre;" direction="ltr" dominant-baseline="text-before-edge">FCP</text></g><g transform="translate(1270 450) rotate(0 64.29166412353516 25)"><text x="64.29166412353516" y="0" font-family="Virgil, Segoe UI Emoji" font-size="20px" fill="#1e1e1e" text-anchor="middle" style="white-space: pre;" direction="ltr" dominant-baseline="text-before-edge">Contenu</text><text x="64.29166412353516" y="25" font-family="Virgil, Segoe UI Emoji" font-size="20px" fill="#1e1e1e" text-anchor="middle" style="white-space: pre;" direction="ltr" dominant-baseline="text-before-edge">Interactivité</text></g></svg>